<svg xmlns="http://www.w3.org/2000/svg" viewBox="0 0 256 256"><rect width="256" height="256" rx="58" fill="#111827"/><polygon points="128.00,82.00 128.00,30.00 185.60,48.72 221.20,97.72 171.75,113.79" fill="#818cf8" stroke="#e0e7ff" stroke-width="2" stroke-linejoin="round"/><polygon points="171.75,113.79 221.20,97.72 221.20,158.28 185.60,207.28 155.04,165.21" fill="#6366f1" stroke="#e0e7ff" stroke-width="2" stroke-linejoin="round"/><polygon points="155.04,165.21 185.60,207.28 128.00,226.00 70.40,207.28 100.96,165.21" fill="#4f46e5" stroke="#e0e7ff" stroke-width="2" stroke-linejoin="round"/><polygon points="100.96,165.21 70.40,207.28 34.80,158.28 34.80,97.72 84.25,113.79" fill="#3730a3" stroke="#e0e7ff" stroke-width="2" stroke-linejoin="round"/><polygon points="84.25,113.79 34.80,97.72 70.40,48.72 128.00,30.00 128.00,82.00" fill="#a5b4fc" stroke="#e0e7ff" stroke-width="2" stroke-linejoin="round"/><polygon points="128.00,82.00 171.75,113.79 155.04,165.21 100.96,165.21 84.25,113.79" fill="#c7d2fe" stroke="#e0e7ff" stroke-width="2" stroke-linejoin="round"/></svg>
